<svg width="193" height="42" viewBox="0 0 193 42" fill="none" xmlns="http://www.w3.org/2000/svg">
<path d="M26.5139 2.53394C15.7834 2.52726 7.0788 11.2296 7.07325 21.9699C7.06547 32.7124 15.759 41.4248 26.4894 41.4314C37.2199 41.4381 45.9245 32.7369 45.9301 21.9955V21.9699C45.9301 11.2363 37.2377 2.53394 26.5139 2.53394ZM26.5139 32.3509C20.7864 32.3587 16.1379 27.7166 16.1313 21.9821C16.1246 16.2499 20.7619 11.5967 26.4894 11.59C32.217 11.5834 36.8654 16.2254 36.8721 21.9577V21.9699C36.8721 27.6988 32.237 32.3442 26.5139 32.3509ZM115.789 2.53394C100.774 2.53394 88.6008 11.2341 88.6008 21.9699C88.6008 32.7068 100.774 41.407 115.789 41.407C130.806 41.407 142.978 32.7068 142.978 21.9699C142.978 11.2341 130.806 2.53394 115.789 2.53394ZM115.789 32.3386C105.419 32.3386 97.66 26.8667 97.66 21.9699C97.66 17.0742 105.419 11.6023 115.789 11.6023C126.16 11.6023 133.92 17.0742 133.92 21.9699C133.92 26.8667 126.184 32.3386 115.789 32.3386ZM180.648 3.39272C178.142 3.39272 176.112 5.42619 176.112 7.93244V23.1613L151.596 3.6875C151.039 3.23364 150.221 3.31596 149.768 3.87327C149.575 4.10799 149.472 4.40278 149.475 4.70647V36.0085C149.475 38.5158 151.506 40.5482 154.011 40.5482C156.515 40.5482 158.546 38.5158 158.546 36.0085V20.7807L183.063 40.2656C183.633 40.7128 184.457 40.6127 184.903 40.042C185.084 39.8118 185.182 39.5281 185.183 39.2355V7.93244C185.183 5.42619 183.153 3.39272 180.648 3.39272ZM81.4798 31.4799H66.1197L85.7326 5.49072C86.166 4.91004 86.0471 4.08797 85.4659 3.65302C85.2415 3.48616 84.9703 3.39494 84.6903 3.39272H56.3127C53.8079 3.39272 51.7776 5.42619 51.7776 7.93244C51.7776 10.4398 53.8079 12.4733 56.3127 12.4733H69.0735L49.3873 38.4747C48.9472 39.042 49.0506 39.8585 49.6173 40.299C49.8496 40.4803 50.1363 40.576 50.4296 40.5727H81.4798C83.9813 40.4425 85.9038 38.3067 85.7727 35.8027C85.6526 33.4811 83.799 31.6256 81.4798 31.5043V31.4799Z" fill="#032B44"/>
</svg>
