<svg width="48" height="115" viewBox="0 0 48 115" fill="none" xmlns="http://www.w3.org/2000/svg">
<path fill-rule="evenodd" clip-rule="evenodd" d="M0 44.5877C0 44.4726 0 44.3522 0 44.2318V33.5508C0 32.5367 0.669651 31.6697 1.73942 31.4917C3.21035 31.2509 5.21617 30.9097 5.75106 30.7571C8.15804 30.028 16.1824 28.3087 16.1824 17.0658V2.06844C16.1824 0.925819 17.1184 0 18.1882 0H28.3505C29.5539 0 30.3563 0.925819 30.3563 2.06844V17.0658C30.3563 32.3962 19.3917 38.4264 18.8568 38.8545C19.3917 39.272 29.9551 44.9129 30.3563 59.6265C30.3563 59.9958 30.4895 60.3704 30.4895 60.7503V75.7476C30.4895 75.7904 30.49 75.8319 30.3563 75.8734C30.3563 75.8734 30.3563 85.5951 30.3563 92.6622C30.3563 96.6373 33.6998 99.8605 37.5777 99.8618C40.2522 99.8618 43.0598 99.8618 45.0656 99.8672C46.1354 99.91 47.0714 100.855 47.0714 102.007C47.0714 104.729 47.2046 108.092 47.2046 111.978C47.2046 112.55 46.9367 113.098 46.6692 113.502C46.1343 113.908 45.6005 114.135 45.0656 114.135H39.4477L39.1813 114.137C33.1639 114.143 27.2807 111.752 23.0016 107.476C18.5888 103.143 16.1824 97.2341 16.1824 91.0687V60.6152C16.1824 60.4479 16.1824 60.2794 16.1824 60.1095C15.9149 49.4418 8.15804 47.7734 5.75106 47.059C5.21617 46.9064 3.21035 46.5652 1.73942 46.323C0.803372 46.1665 0.133721 45.4721 0 44.6145V44.5877Z" fill="#3ADF68"/>
</svg>
